<svg xmlns="http://www.w3.org/2000/svg" width="31.166" height="31.725" viewBox="0 0 31.166 31.725">
  <path id="Path_1849" data-name="Path 1849" d="M552.11,291.844l2.747,1.652c.669.4,1.342.8,2.007,1.211a4.55,4.55,0,0,1,2.152,3.31,3.064,3.064,0,0,1,.026.483c0,1.615.007,3.231,0,4.846a4.456,4.456,0,0,1-1.077,2.864,4.776,4.776,0,0,1-1.29,1.055q-1.767,1.054-3.526,2.122a4.248,4.248,0,0,1-2.49.633,3.98,3.98,0,0,1-1.84-.55q-2.27-1.355-4.528-2.731a.513.513,0,0,0-.625-.014c-1.472.905-2.959,1.785-4.438,2.677a4.234,4.234,0,0,1-2.468.618,4.492,4.492,0,0,1-2.111-.707c-1.193-.729-2.4-1.43-3.586-2.174a4.422,4.422,0,0,1-2.174-3.9c-.018-1.543,0-3.087,0-4.63a4.55,4.55,0,0,1,2.291-3.968c1.482-.888,2.958-1.786,4.442-2.67a.377.377,0,0,0,.2-.381c-.005-1.831-.027-3.662,0-5.492a4.418,4.418,0,0,1,2.065-3.832c1.078-.7,2.2-1.335,3.3-2,.29-.174.58-.349.878-.508a4.015,4.015,0,0,1,1.5-.436,4.259,4.259,0,0,1,2.707.659c1.174.71,2.345,1.424,3.527,2.12a4.606,4.606,0,0,1,2.044,2.469,4.306,4.306,0,0,1,.262,1.47c.006,1.831,0,3.661,0,5.492C552.11,291.632,552.11,291.73,552.11,291.844Zm-8.16,11.832a.349.349,0,0,0,.051-.015c1.487-.894,2.985-1.77,4.458-2.691a2.57,2.57,0,0,0,1.243-2.3c0-1.713,0-3.427,0-5.14a.357.357,0,0,0-.2-.359c-1.423-.849-2.835-1.719-4.264-2.557a2.418,2.418,0,0,0-2.6.024c-1.4.832-2.8,1.682-4.2,2.516a.4.4,0,0,0-.223.4c.008,1.686.006,3.373,0,5.059a2.7,2.7,0,0,0,1.351,2.431c.39.245.788.475,1.182.712Zm-8.133-8.94c-.115.064-.183.1-.249.138-1.071.646-2.137,1.3-3.213,1.935a2.1,2.1,0,0,0-1.094,1.9q-.02,2.221,0,4.442a2.066,2.066,0,0,0,1.041,1.856c1.248.756,2.494,1.514,3.75,2.256a1.781,1.781,0,0,0,1.894.019c1.155-.672,2.293-1.375,3.438-2.066a1.475,1.475,0,0,0,.14-.11c-.07-.049-.117-.088-.169-.119-.975-.586-1.949-1.173-2.926-1.754a5.218,5.218,0,0,1-1.889-1.9,5.426,5.426,0,0,1-.721-2.763q0-1.75,0-3.5C535.817,294.976,535.817,294.878,535.817,294.736Zm10.572,10.374c.091.063.157.116.229.159q1.64.986,3.281,1.97a1.844,1.844,0,0,0,2.007.012c1.261-.747,2.515-1.508,3.767-2.273a2.01,2.01,0,0,0,.993-1.8q.018-2.247,0-4.494a2.051,2.051,0,0,0-1.046-1.848c-.969-.578-1.932-1.166-2.9-1.748-.19-.115-.384-.223-.61-.355v.334c0,1.2,0,2.4,0,3.606a4.758,4.758,0,0,1-.052.721,5.162,5.162,0,0,1-2.415,3.748c-.6.373-1.2.728-1.8,1.092Zm-8.164-14.718c.1-.054.171-.086.235-.124,1-.6,1.988-1.207,2.993-1.79a4.742,4.742,0,0,1,5.011-.012c1.018.577,2.009,1.206,3.012,1.81.063.038.131.066.211.106.006-.076.012-.12.012-.165q0-2.126,0-4.251a1.413,1.413,0,0,0-.037-.291,2.05,2.05,0,0,0-.993-1.372q-1.841-1.106-3.683-2.21a1.889,1.889,0,0,0-2.057.006c-.366.216-.729.438-1.093.657-.884.533-1.775,1.056-2.651,1.6a1.958,1.958,0,0,0-.96,1.756q0,1.978,0,3.955Z" transform="translate(-528.379 -278.802)" fill="#267c8d" stroke="#fff" stroke-width="1"/>
</svg>
